<svg width="21" height="24" viewBox="0 0 21 24" fill="none" xmlns="http://www.w3.org/2000/svg">
<g clip-path="url(#clip0_6974_70194)">
<path opacity="0.4" fill-rule="evenodd" clip-rule="evenodd" d="M4.52624 1.71429C4.88744 0.715886 5.85904 0 7.00144 0H18.375C19.0694 0 19.7386 0.271543 20.2314 0.754286C20.7242 1.23703 21.0014 1.88983 21.0014 2.5728V18.0014C21.0014 18.6843 20.7242 19.3371 20.2314 19.8199C19.7386 20.3026 19.0722 20.5742 18.375 20.5742V9.43269C18.375 8.82377 18.1538 8.23131 17.7506 7.76777L13.2874 2.62491C12.7862 2.04891 12.0582 1.71977 11.2882 1.71977H4.52344L4.52624 1.71429Z" fill="#a4a5aa"/>
<path fill-rule="evenodd" clip-rule="evenodd" d="M16.6264 10.2868V21.4283C16.6264 22.8491 15.4504 24.0011 14 24.0011H2.6264C1.932 24.0011 1.2628 23.7296 0.77 23.2468C0.2772 22.7641 0 22.1113 0 21.4283V6.00249C0 5.31952 0.2772 4.66672 0.77 4.18397C1.2628 3.70123 1.9292 3.42969 2.6264 3.42969H9.6264V7.71403C9.6264 8.397 9.9036 9.0498 10.3964 9.53255C10.8892 10.0125 11.5556 10.2841 12.2528 10.2841H16.6264V10.2868Z" fill="#a4a5aa"/>
<path fill-rule="evenodd" clip-rule="evenodd" d="M11.375 3.43359C11.599 3.45554 11.8062 3.56251 11.9546 3.73256L16.1546 8.57371H12.2514C12.019 8.57371 11.7978 8.48319 11.6326 8.32411C11.4674 8.16228 11.3778 7.94559 11.3778 7.71794V3.43634L11.375 3.43359Z" fill="#a4a5aa"/>
</g>
<defs>
<clipPath id="clip0_6974_70194">
<rect width="21" height="24" fill="white"/>
</clipPath>
</defs>
</svg>
