<svg width="23" height="23" viewBox="0 0 23 23" fill="none" xmlns="http://www.w3.org/2000/svg">
<g clip-path="url(#clip0_6974_70103)">
<path opacity="0.4" d="M21.9443 16.3438H16.9027C16.4085 18.7162 15.5517 20.891 14.3984 22.6374C17.7595 21.7478 20.5274 19.4082 21.9443 16.3438Z" fill="#a4a5aa"/>
<path opacity="0.4" d="M14.4297 0.363281C15.583 2.1097 16.4397 4.28448 16.934 6.65698H21.9426C20.5257 3.55956 17.7578 1.22001 14.4297 0.363281Z" fill="#a4a5aa"/>
<path opacity="0.4" d="M8.79824 0.296875C5.37131 1.12066 2.5375 3.49315 1.05469 6.62352H6.26099C6.78821 4.25103 7.64495 2.07624 8.79824 0.296875Z" fill="#a4a5aa"/>
<path opacity="0.4" d="M6.06304 15.0242C5.89828 13.8709 5.79943 12.7176 5.79943 11.4984C5.79943 10.2792 5.89828 9.12595 6.06304 7.97266H0.560172C0.197708 9.093 0 10.2792 0 11.4984C0 12.7176 0.197708 13.9039 0.560172 15.0242H6.06304Z" fill="#a4a5aa"/>
<path d="M11.5306 22.9999C11.8601 22.9999 12.2226 22.967 12.5521 22.967C13.969 21.2864 14.9905 18.9799 15.5836 16.3438H7.60938C8.2025 18.9799 9.22399 21.2864 10.6409 22.967C10.9375 22.967 11.234 22.9999 11.5306 22.9999Z" fill="#a4a5aa"/>
<path d="M7.11719 11.4984C7.11719 12.7176 7.21604 13.8709 7.3808 15.0242H15.8163C15.9811 13.9039 16.0799 12.7176 16.0799 11.4984C16.0799 10.2792 15.9811 9.12595 15.8163 7.97266H7.3808C7.21604 9.093 7.11719 10.2792 7.11719 11.4984Z" fill="#a4a5aa"/>
<path opacity="0.4" d="M17.3964 11.4984C17.3964 12.6847 17.2976 13.8709 17.1328 15.0242H22.438C22.8004 13.9039 22.9981 12.7176 22.9981 11.4984C22.9981 10.2792 22.8004 9.093 22.438 7.97266H17.1658C17.3305 9.093 17.3964 10.2792 17.3964 11.4984Z" fill="#a4a5aa"/>
<path opacity="0.4" d="M1.08594 16.3438C2.53579 19.4741 5.3696 21.8466 8.82949 22.6704C7.67619 20.924 6.78651 18.7492 6.29224 16.3438H1.08594Z" fill="#a4a5aa"/>
<path d="M11.5367 0C11.2401 0 10.9765 0 10.68 0.0329513C9.26305 1.71347 8.20861 4.02006 7.64844 6.65616H15.5897C14.9966 4.02006 13.9751 1.71347 12.5582 0.0329513C12.1957 0 11.8662 0 11.5367 0Z" fill="#a4a5aa"/>
</g>
<defs>
<clipPath id="clip0_6974_70103">
<rect width="23" height="23" fill="white"/>
</clipPath>
</defs>
</svg>
